<?xml version="1.0" encoding="UTF-8"?>
<svg id="Layer_1" xmlns="http://www.w3.org/2000/svg" version="1.1" viewBox="0 0 1464 429.12">
  <!-- Generator: Adobe Illustrator 30.3.0, SVG Export Plug-In . SVG Version: 2.1.3 Build 182)  -->
  <defs>
    <style>
      .st0 {
        fill: #0a519c;
      }

      .st1 {
        fill: #6aa6e5;
      }

      .st2 {
        fill: #82a2be;
      }

      .st3 {
        fill: #fbfee2;
      }

      .st4 {
        fill: #58e4ee;
      }
    </style>
  </defs>
  <g>
    <path class="st4" d="M253.44,0c-.24.15.81.45,1.03.45l11.12.24,13.29,1.18,5.1.71c12.86,2.46,25.5,5.17,37.73,9.7l10.61,3.93,5.04,2.12,7.82,3.76c15.13,7.27,28.9,16.45,41.89,27.09l7.48,6.5,4.73,4.44c.58.54,1.83,1.34,2.52,1.74.68,1.26,1.6,2.21,2.85,2.96l1.82,2.35,3.57,3.75,2.73,3.03,2.25,2.53,3.82,4.31,2.97,3.8c2.86,4.07,1.27,5.57.86,4.73l-.57-1.14c-2.85-2.39-3.77-5.21-7.7-8.15-.9-.67-1.19-1.23-1.94-2l-9.71-9.9-4.1-3.61-8.88-7.07-11.9-8.59-7.78-4.74-2.15-1.19-5.98-3.31-3.2-1.64c-1.72-.88-3.36-1.43-5.24-1.83-.15-.37-.4-1.19-.69-1.47s-1.44-.25-1.83-.43l-4.95-2.21-3.66-1.62-7.36-2.75-4.17-1.28c-2.01-.62-4.69-1.95-6.89-1.47-.64.14-1.51-1.17-2.04-1.38-5.83-2.39-22.55-5.37-30.14-6.07l-9.65-.89c-13.86-1.28-33.95-.14-47.88,2.71l-4.32.89-10.02,1.83-7.34,2.59-5.97,1.78-4.11,1.27-6.62,2.49-6,2.25-10.5,4.97c-17.62,8.34-41.33,25.94-54.66,40.44-11.02,11.99-20.95,24.77-28.98,39.13l-4.56,8.46c-8.51,15.79-14.03,32.93-17.5,50.58l-2.03,12.96-1.28,11c-1.04,8.97-.48,17.95-.14,27.1l1.11,10.82.7,5.54c1.82,14.32,5.86,27.91,10.81,41.4-10.21,5.69-19.98,11.53-29.66,17.67-9.14-20.76-15.57-42.57-17.47-65.37l-.86-10.27c-.69-8.32-.74-16.64.02-24.96l.69-7.49,1.07-10.6,1.61-8.59,1.04-5.74c1.14-6.29,2.92-12.16,4.82-18.31,1.45-4.69,3.23-9.09,4.92-13.69,8.15-22.16,21.35-43.85,36.72-61.71l2.71-3.15c3.37-3.91,6.82-7.42,10.53-11.05,14.02-13.74,29.44-25.37,46.75-34.84,16.21-8.86,33.05-15.76,50.92-20.12l3.47-.85c7.02-1.71,13.89-3.23,21.11-3.93l9.62-.93,4.36-.24,10.04-.65h8.16Z"/>
    <path class="st4" d="M108.52,245.03l-5.8,5.54-3.05,2.91c7-23.37,24.12-47.75,43.81-61.39l10.81-7.49c4.61-3.19,9.71-5.49,14.88-7.69l8.62-3.68,12.77-4.25,14.88-3.83,8.61-2c1.5-.35,2.66-.84,4.35-.72,1.8.14,3.74-.63,5.29-.77l10.34-.94,8.1-.77,18.03-.77,13.92-.97,9.48-1.03,5.9-.73,3.63-.53,11.35-2.15c18.96-3.59,36.75-10.96,52.78-21.65l10.71-8.58,3.82-4.25c3.64-4.04,7.57-7.53,10.51-12.13l3.46-4.21-2.18,7.11-1.41,3.77-3.79,9.19-1.5,3.17-1.73,3.61-3.35,6.24-5.19,7.84-8.89,12.21-4.33,4.81-9.16,9.05-8.18,6.63c-11.17,8.15-23.15,13.92-36.28,18.06-11.03,3.48-22.01,5.22-33.51,6.31l-20.23.95-15.77,1.05-14.72,1.55-16.27,2.38-5.25.75c-1.04.15-1.85.09-2.82.34l-21.97,5.53-12.21,4.03-9.66,3.73-4.06,1.78-12.71,6.43c-8.07,4.08-15.35,9.19-22.03,15.57Z"/>
    <path class="st0" d="M420.08,265.57c0-1.4.22-2.1-.1-3.57h-34.28c-3.53,0-6.42-2.44-6.39-5.78.02-3.12,2.33-6.22,5.95-6.22l40.99.04c2.09,0,5.73,1.98,5.75,4.59l.24,36.21c-7.29,15.19-24.14,21.12-39.94,22.16l-14.18.1c-13.6-1.21-26.01-7.91-35.1-18.16-5.34-6.02-9.49-12.23-12.23-19.77-8.55-23.51-2.98-49.55,14.79-66.7,10.72-10.34,24.66-16.23,39.49-15.64,18.68.74,34.88,7.75,44.57,24.47,1.7,2.93.03,6.3-2.32,7.77-2.73,1.72-6.02.98-8.06-1.91-3.39-4.79-7.14-9.32-12.33-12.3-6.75-3.87-14.23-5.42-21.95-5.81-18.54-.93-33.7,9.94-41.43,27.07-9.23,20.47-3.86,45.06,13.05,59.31,5.76,4.85,11.91,8.02,19.35,9.07,8.38,1.19,16.91.91,25.17-1.1l3.11-.76c6.32-1.53,11.63-5.63,15.76-10.55l.08-22.53Z"/>
    <path class="st4" d="M280.29,135.1c-2.52-.45-9.22-3.71-11.43-5.4-12.47-9.55-17.82-25.49-12.42-40.27,3.61-9.88,10.93-17.19,20.65-21.14,1.79-.73,4.05-1.18,6.2-1.54,17.06-2.92,33.77,7.08,39.22,23.5,4.5,13.54.49,27.99-10.43,37.04l-6.8,5.1-4.32,1.98c-2.58,1.18-12.41,2.22-16.18,1.55l-4.5-.81Z"/>
    <g>
      <path class="st4" d="M269.28,429l-34.98-.25c-13.44-.63-26.73-2.67-39.87-6.44l-3.07-.88c-14.69-4.21-28.67-9.56-42.08-16.86l-9.03-4.91-2.67-1.66-10.02-6.59c-8.7-5.72-16.85-12.25-24.33-19.5l-6.84-6.63-2.75-2.99-2.18-2.25c-13.12-13.55-23.47-29.33-32.67-45.79l31.94-11.95,1.11,3.13,7.34,12.89,2.68,4.05c5.7,8.62,11.54,16.53,18.45,24.31,14.77,16.63,31.89,30.43,51.31,41.22l4.12,2.29,3.81,1.94,3.59,1.74,5.22,2.48c20.36,8.84,41.78,14.6,64.08,16.26,12.06.9,23.47.92,35.41-.22,27-2.57,52.95-10.49,76.6-23.54,12.49-6.89,24.18-14.33,34.61-23.97l10.27-9.5,3.35-4.18,2.86-2.94c1.37-1.41,2.26-3.17,4.92-2.66l-5.55,7.2-4.06,4.62-8.03,8.3-9.61,9.19-15.74,12.54-3.73,2.96-11.04,7.25-10.63,6.12-14.49,7.16c-13.23,5.87-26.56,10.68-40.81,13.48l-9.62,1.89-6.18,1.05-6.43.77-5.21.89Z"/>
      <path class="st0" d="M90.93,302.17l-31.82,11.91c-17.5,6.55-34.26,14.08-51.01,22.31l-7.12,2.69,5.79-4.47c15.1-11.66,30.8-22.23,46.79-32.37,9.65-6.12,19.39-11.94,29.56-17.61,34.09-18.99,73-36.21,111.24-44.48,12.72-2.75,25.14-5.16,38.17-5.15h13.4s7.07.42,7.07.42c18.01,1.05,43.27,9.71,47.62,28.95.81,3.6,1.55,6.91.92,10.6-.55,3.19-.99,6.46-2.15,9.41-2.9,7.36-6.69,13.75-11.72,19.89-8.96,10.96-19.36,20.11-30.84,28.39l-20.19,13.34c-12.43,8.21-25.63,14.49-39.31,20.43l-12.02,5.22c-.3.13-1.29-1.01-.96-1.08l1.46-.34c13.73-8.59,26.67-17.87,38.98-28.43,11.87-10.01,27.98-25.91,29.18-41.55.49-6.36-2.35-12.47-7.95-15.47l-5.85-3.14c-7.72-3.25-15.9-4.69-24.16-4.64l-15.07.09c-33.09,1.84-79.04,13.49-109.99,25.08Z"/>
    </g>
  </g>
  <g>
    <path class="st4" d="M668.16,429h-2s-8.66-9.04-8.66-9.04c-5.23,5.11-11.4,8.13-18.14,9.04h-10.56s-2.7-1.21-2.7-1.21c-5.91-1.55-10.85-5.51-12.93-11.52s.48-13.01,5.23-17.33l3.3-3c2.23-2.03,4.94-3.59,7.74-4.82-1.26-.67-1.99-2.45-2.74-3.23-3.5-3.64-5.6-7.45-5.67-12.69s2.8-10,7.86-12.42c8.43-4.03,21.91-1.88,24.52,7.89,2.16,8.07-2.91,14.95-10.2,18.95l-4.18,2.29,5.33,5.68,2.3,1.96,10.15,10.73c4.34-5.33,2.93-12.39,5.45-11.87l4.98,1.03c-.77,3.7-1.63,7.93-3.48,11.31l-2.31,4.22,8.32,8.58c.28.29,1.38.99,1.13,1.3l-1.2,1.43c-.75.9-1.42,1.84-1.55,2.73ZM645.07,380.82c3.61-3.68,3.39-9.99-.71-12.7-3.53-2.33-11.4-2.28-14.53,1.4-4.99,5.85-.49,13.47,5.44,18.5,3.73-2.24,6.87-4.2,9.81-7.2ZM653.23,415.75l-14.63-15.14-3.42-3.83c-.4-.45-1.3-1.38-1.81-1.24s-1.42.7-2.01,1.11c-6.67,4.63-13.82,8.98-11.19,18.16,2.9,10.14,25.25,11.21,33.06.94Z"/>
    <path class="st4" d="M1175.04,429h-5.16s-.86-.55-.86-.55c-9.07-1.59-15.69-8.34-18.27-17.62-3.02-9.96.12-21.7,8.16-28.06,9.25-7.32,23.41-7.04,31.08,1.7.67.77.94,1.44,1.99,1.28l.03-28.57,6.97.35,1,65.79v4.7h-7.23l-.18-8.77c-4.59,6.36-17.54,9.77-17.54,9.77ZM1186.81,417.67c7.16-6.64,7.37-19.81,1.61-26.9-6.28-7.71-17.47-9-25.59-3.11-4.84,3.51-7.04,9.09-7.17,15.09-.14,6.73,2.48,13.55,8.48,17.1,7.2,4.25,16.47,3.58,22.67-2.18Z"/>
    <path class="st4" d="M962.92,429h-8.77s-1.66-.71-1.66-.71l-5-1.83c-2.12-.78-3.9-2.03-5.64-3.68-6.03-5.71-9.35-14.14-8.39-22.55l1.12-5.61c4.56-13.32,16.65-19.27,30.33-16.72,4.63.86,10.46,4.99,13.1,8.77l.04-29.66,6.96.1v70.78s-6.53.33-6.53.33l-.25-9.32c-3.54,5.04-7.61,7.3-13,9.1l-2.29,1.01ZM975.03,414.99c5.88-9.23,3.91-22.76-4.92-28.09-7-4.23-15.48-3.97-22.01,1.19-8.69,6.86-8.68,23.79.16,30.54s21.71,4.33,26.78-3.63Z"/>
    <path class="st4" d="M752.64,429h-15.36l-2.45-.84-7.93-2.67c-2.57-.87-4.63-2.93-6.84-4.67-.46-2.52,2.54-6.03,2.58-6.01.38.16,1.14.65,1.53,1,4.23,3.72,13.7,6.87,19.34,6.18h5.3c3.54.51,9.63-2.09,11.17-4.63,3.25-5.36,2.92-7.62-.34-12.36-2.25-2.47-5.09-3.57-7.93-4.36l-6.06-1.7-4.41-1.04-2.79-.8c-4.51-1.29-8.97-3.45-12.71-6.24l-3.21-4.09c-1.86-6.05-1.61-13.61,2.38-17.87,8.73-9.33,21.49-8.93,33.47-6.05,3.74.9,8.63,3.76,8.22,4.72l-2.2,5.1-9.07-3.85c-3.74-1.59-10.89-1.62-15.41-.96-2.5.37-4.36,1.55-6.33,2.78-5.12,3.19-6.68,9.82-2.85,14.63l2.66,2.13,13.52,4.75,7.47,1.88,4.94,1.72c3.13,1.09,5.73,3.67,7.93,6.31,2.57,3.07,3.27,9.64,2.22,12.28l-1.94,4.86-1.96,2.92c-3.6,2.89-7.15,5.06-11.5,6.1l-1.34.2c-.18.03-.14.61-.11.58Z"/>
    <path class="st4" d="M1283.43,429h-.02s-.41-3.41-.41-3.41v-68.31s7,.15,7,.15l.06,28.18c4.81-6.9,14.36-9.16,22.69-8.09,6.98.9,12.46,5.23,14.79,12.03.67,1.96,1.46,4.82,1.46,7.05l.06,31.38h-7.06v-28.53c.3-4.53-1.66-11.12-5.74-13.16-6.24-3.13-13.96-3.05-19.68,1.16-3.76,2.76-5.22,6.51-6.58,10.95v30.04l-6.57.54Z"/>
    <path class="st4" d="M1058.77,429h-5.87s-.91-1.42-.91-1.42l.03-31.68-1.92-4.69c-.65-1.59-2.35-3.66-3.83-4.53-5.41-3.16-11.32-3.11-17.14-.78-5.05,2.02-9.09,7.18-9.13,12.96l-.17,29.14-6.83.1v-71.1s7,.04,7,.04l.15,28.55c5.98-8.14,17.2-9.84,26.86-7,5.48,2.45,10.11,6.61,11.05,12.82l.95,6.28.14,27.95-.37,3.36Z"/>
    <path class="st4" d="M1112.52,429h-9.41s-3.31-1.11-3.31-1.11c-9.54-2.38-17.26-11.81-17.49-22.41-.21-9.78,1.84-14.37,8.08-21.24.68-.75,1.53-1.2,2.44-1.74,9.2-5.51,16.4-5.22,26.14-.85,1.4.63,1.83,1.12,2.98,2.26,1,1,2.06,1.84,2.92,3.04,4.05,5.59,6.22,12,5.32,19.04l-40.54.04c-.32,3.16.57,5.95,2.23,8.28,4.41,6.21,11.26,8.82,18.81,8.19,4.86-.41,8.76-2.53,12.43-6.25,1.85.84,3.99,4.02,3.81,4.81-.11.48-.94,1.18-1.45,1.61-2.91,2.5-6.24,4.45-10.11,5.36l-2.85.96ZM1123.74,399.99c-.72-10.48-8.98-17.05-18.85-16.42-8.8.56-15.61,7.49-15.93,16.43h34.78ZM1087.58,405.66c1.82-1.97,1.45-4.47-.25-5.51-.18,1.91-.17,3.86.25,5.51Z"/>
    <path class="st0" d="M1464,236.86v71.57c-1.79,2.62-4.46,4.4-7.11,3.74-1.83-.46-4.88-2.28-4.89-5.07l-.11-66.9c0-2.18.58-3.98,1.91-5.42,1.06-1.15,3.72-2.09,5.35-1.59,2.17.66,3.6,2.21,4.85,3.68Z"/>
    <path class="st4" d="M1382.02,429h-10.87s-2.24-1.16-2.24-1.16c-7.59-2.77-12.83-9.75-12.91-17.95l-.28-31.89,7.28-.12.28,31.36c.07,8.13,6.68,12.89,14.36,13.04,9.2.19,17.29-5.82,17.36-15.35l.2-28.68,6.8.15v49.61h-7v-8.58c-3.61,5.8-12.98,9.58-12.98,9.58Z"/>
    <path class="st4" d="M867.72,429h-.62s-1.09-1.57-1.09-1.57v-46.35s-.2-2.88-.2-2.88l6.82-.12.29,8.11c6.54-7.73,14.23-9.79,24-8.16l2.56.43c1.96,1,4.71,2.12,6.23,3.47,3.22,3.7,6.28,8.03,6.3,13.01l.14,33.64-7.14-.43,1-5.8.05-22.09-.44-4.24c-.72-6.89-5.8-11.23-12.67-11.77-1.84-.14-3.66-.32-5.53.06-4.76.96-9.39,2.86-11.92,7.19-1.24,2.11-2.47,5.41-2.48,7.99l-.11,21.34.18,7.55-4.34-.14c-.25,0-.97-.09-.99.09l-.02.69Z"/>
    <path class="st4" d="M1248.21,429h-15.39s-1.25-.72-1.25-.72l-9.13-3.76c-.74-.3-2.62-1.2-2.52-1.95.29-2.15,1.78-4.31,3.11-5.83,2.75,1.76,5.54,3,8.81,3.96l4.4,1.3,11.02-.09c2.4-.02,7.34-3.3,7.85-7.38-.27-2.96-2.34-5.92-5.26-6.59l-9.75-2.27-4.59-.92-3.72-1.03c-4.48-1.23-7.83-3.97-9.36-7.57-1.82-4.3-1.38-8.99,1.15-12.84,6.5-9.88,25.52-9,36.69-2.98-.3,2.38-1.55,4.44-3.05,6.17-6.59-3.44-13.15-5.18-20.39-3.91-1.38.24-3.41,1.26-4.79,1.99-2.16,1.13-3.8,4.41-3.27,6.8.32,1.38,1.55,3.41,2.32,4.48l5.36,2.03,13.62,2.96c5.21,1.13,10.32,3.91,11.84,9.26,1.62,5.7-.45,11.7-5.29,14.79-1.65,1.05-3.75,2.35-5.42,2.85l-3,1.24Z"/>
    <path class="st4" d="M817.44,429h-9.54s-2.4-1.13-2.4-1.13c-2.1-.84-4.7-2.05-6.51-3.42-5.03-3.81-7-10.02-6.99-16.13v-30.32s7-.01,7-.01l.18,28.97c.03,4.43,1.59,9.04,4.86,11.97,5.21,4.66,17.04,4.81,22.58-1.27,2.89-3.17,4.38-7.55,4.37-11.91v-27.3l6-.2,1,35.49v14.27h-6v-8.12c-1.44.53-1.85,1.02-2.41,1.74-2.5,3.28-6.27,5.4-10.17,6.61l-1.98.76Z"/>
    <path class="st4" d="M1464,409.92v8.64c-4.58,8.53-10.54,10.06-20.14,10.16-7.53.08-14.65-1.13-20.67-5.94l2.74-5.41,7.63,3.78c3.09,1.53,11.63,1.71,16.45,1.02,1.89-.27,4.58-2.18,5.75-3.61,2.62-3.2.78-7.95-2.8-9.56-2.94-1.33-6.15-1.77-9.3-2.32l-5.46-.94c-3.16-.55-6.66-2.05-9.26-3.93l-2.29-2.53c-4.32-7.19-1.31-16.07,6.48-19.38,8.76-3.83,21.03-2.49,29.57,2.71l-1.41,2-2.23,3.14-5.41-2.53-2.8-1.11-6.98-.19c-6.34-.17-12.43,3.59-12.38,7.95.05,4.69,4.83,6.71,9.83,7.74l8.78,1.81,7.76,2.38c1.74.53,3.85,2.93,4.74,4.43l1.4,1.7Z"/>
    <path class="st0" d="M1464,215.02v5.3s-.81.77-.81.77c-1.94,2.96-6.64,3.88-9.32,1.47-2.88-2.58-2.99-7.07-.09-9.45s5.7-2.46,8.26.14l1.97,1.77Z"/>
    <path class="st0" d="M1425.38,290.38c11.31-10.16,12.04-26.69.61-37.11-3.6-3.29-8.64-6.15-13.79-6.54l-5.27-.73h-10.92v100.5c-.63,3.04-3.61,5.6-6.46,5.74s-6.65-2.49-6.54-5.77v-107.22c-.07-3.39,4.13-5.34,6.5-5.26h16.46c11.9-.14,23.48,3.96,31.39,12.9,10.25,11.59,12.54,28.09,5.08,41.62-7.87,14.26-23.93,23.18-40.23,22.76-1.77-.05-4.1-.9-4.91-2.61-.75-1.59-1.02-4.22-.46-5.8,2.47-6.97,14.04.54,28.55-12.49Z"/>
    <path class="st0" d="M1213.08,298.36c6.67,2.69,14.35,1.51,20.11-1.99l6.17-5.1c2.04-1.69,4.91-1.95,6.95-.21,1.51,1.27,2.57,3.16,2.62,4.95.05,2.22-1.32,3.76-2.8,5.27-3.97,4.06-8.57,6.37-13.84,8.25-1.5.53-3.05,1.3-4.73,1.59-16.56,2.81-30.7-4.78-38.42-19.32-1.53-2.87-2.64-6.23-3.48-9.43-3.29-12.59-.51-26.4,8-36.46,6.97-8.25,17.81-12.87,28.71-12.39,12.23.55,22.16,7.47,27.97,18.08,3.2,5.85,4.46,12.23,4.53,19.01.05,4.71-3.54,9.38-8.64,9.4l-21.93,1-20.34-.11c-3.85-.02-6.78-2.53-6.95-6.37-.14-3.29,2.85-6.52,6.54-6.53l39.15-.04c-.99-5.07-2.53-9.67-5.32-13.58-7.31-10.25-20.34-11.66-30.33-4.1-6.12,4.64-9.93,11.97-10.36,19.85-.66,11.97,4.79,23.54,16.37,28.22Z"/>
    <path class="st0" d="M556.05,255.73c9.09,18.06.84,41.17-17,51.92-14.99,9.04-33.62,6.38-46.34-5.54-6.43-6.03-11.22-13.6-12.96-22.34-2.63-13.16,1.3-26.16,11.04-35.25,8.67-8.09,20.28-13.07,32.1-11.92,8.72.85,16.26,4.47,22.86,9.78,4.53,3.65,7.65,8.09,10.29,13.35ZM534.47,295.55c7.36-5.2,12.07-13.4,12.67-22.43.37-5.56-1.72-10.5-4.51-15.09-1.31-2.14-2.9-3.68-4.68-5.43-6.98-6.85-16.49-9.71-26.03-6.54-10.39,3.46-18.56,12.22-20.27,23.14-1,6.35,1.11,12.08,4.23,17.27,2.83,4.7,6.57,8.15,11.29,10.82,8.89,5.03,18.72,4.32,27.31-1.75Z"/>
    <path class="st0" d="M705.26,302.7c-6.61,5.83-14.09,9.53-22.67,10.17-6.17.46-12.29-.28-17.88-2.72-12.42-5.42-21.9-15.98-25.01-29.17l-.52-2.74c-1.83-9.7.44-19.32,6.17-27.59,8.35-12.07,23.13-19.73,37.87-17.95,11.61,1.4,22.1,7.43,28.74,16.62,12.14,16.79,8.68,39.83-6.7,53.39ZM692.86,296.44c14.4-9.28,18.78-28.26,7.25-41.41-7.53-8.58-18.48-12.76-29.5-8.65-9.42,3.51-17.05,11.52-19.05,21.56-1.77,8.89,2.02,17.53,8.06,23.78,1.78,1.81,3.47,3.28,5.56,4.53,8.59,5.8,19.14,5.7,27.69.19Z"/>
    <path class="st0" d="M1123.32,309.69c-5.98,2.88-13.93,3.91-20.54,2.97-12.59-1.78-22.89-9.2-29.53-19.83-7.62-12.19-8.46-27.16-1.11-39.56,5.73-9.66,14.52-16.2,25.22-19.38,14.15-4.2,28.64.69,39.33,10.96,5.49,5.27,9.22,12.46,10.47,20.03,3.17,19.21-6.66,36.52-23.84,44.81ZM1121.38,296.43c9.35-6,15.18-16.48,13.67-27.6-1.74-12.85-15.08-25.21-29.02-23.89-12.92,1.22-23.55,10.68-26.09,23.32s7.02,25.9,18.82,30.62c7.7,3.08,15.54,2.09,22.61-2.45Z"/>
    <path class="st0" d="M1360.31,308.44c-10.57,4.54-18.22,6.06-29.59,3.61-5.78-1.25-10.72-3.71-14.86-8-1.23-1.28-3.14-3-3.89-4.7-1.64-3.71-2.96-7.89-2.98-12.07l-.11-30.47c-.01-3.55,1.67-6.96,3.56-9.99,6.79-10.86,19.86-16.46,32.56-14.41,14.71,2.38,28.01,12.6,27.99,28.15l-.08,47.2c0,2.32-2.29,4.3-3.73,5-1.85.9-5.08.78-6.34-.91l-2.54-3.41ZM1360,288.59l-.09-26.93c-.02-4.84-2.15-8.77-5.5-11.94-6.04-5.72-16.41-6.71-24.1-3.43-6.09,2.6-9.3,8.31-9.31,14.97l-.07,25.27c0,3.43,1.79,6.26,4.09,8.5,11.88,11.57,35.01,3.48,34.98-6.46Z"/>
    <path class="st0" d="M983.82,240.72l-48.29,103.82c-1.16,2.49-2.03,4.95-4.02,6.55-2.21,1.78-4.91,1.47-7.09.01-1.57-1.06-3.86-3.94-2.72-6.4l17.62-37.93-30.04-63.98c-1.4-2.98-1.68-5.65.56-8.43,2.35-2.85,6.52-2.67,9.17.16l5.26,10.58,21.91,47.02,26.39-56.72c1-2.15,4-3.17,5.78-3.05,4.33.27,6.81,5.48,5.47,8.37Z"/>
    <path class="st0" d="M594.01,296.73c6.92,4.14,14.9,5.25,22.52,2.38,7.76-2.93,11.92-12.52,18.37-6.59,2.71,2.49,2.32,6.53-.3,8.98-6.83,6.39-14.97,10.84-24.49,11.41-17.34,1.03-32.84-8.75-39.87-24.46-5.66-12.65-4.06-26.62,3.56-38.2l4.69-5.91,3.72-3.27c7.68-6.75,17.65-9.33,27.87-8.7,8.95.55,16.64,4.5,23.31,10.22,1.67,1.43,3.05,3.05,3.3,5.12.23,1.91-.6,4.38-2.29,5.53-3.7,2.5-7.56.59-10.36-2.14-4.79-4.67-10.7-6.96-17.37-6.46-16.75,1.24-29.62,15.22-26.92,32.83,1.02,6.68,5.87,14.27,11.64,17.71l2.6,1.56Z"/>
    <path class="st0" d="M1173,229.82v76.28s-3.84,6.61-7.02,6.77c-3.68.18-6.54-2.73-6.98-6.31v-82.56l-8.73.05c-3.27.02-5.82-1.78-6.27-4.85-.4-2.7,1.01-6.3,4.46-6.86l11.54-.35-.19-14.05c-.04-2.82,1.32-5.57,4.02-6.67,3.18-1.31,8.12,1.03,8.18,4.92l.24,15.83h10.45s4.87,1.6,5.68,3.95c.7,2.02.4,5.4-2.02,6.49-7.3,3.27-11.45-.06-14.36,2.1l1,5.28Z"/>
    <path class="st0" d="M1032.07,293.33c-1.15,10-10.18,19-20.67,19.64-11.28.69-21.22-6.06-24.59-16.72-1.07-3.39.16-6.69,3.49-7.92,3.02-1.12,6.5.69,7.71,3.91,1.45,3.86,3.93,6.62,7.91,8,3.61,1.25,7.74,1.04,10.49-1.88,3-3.18,4.25-8.01,2.44-12.09-1.24-2.81-4.09-4.49-6.64-5.84l-9.47-5.01c-6.15-3.25-12.22-7.8-14.21-14.93-2.49-8.91,1.37-18.63,8.67-23.93,5.93-4.3,12.82-4.88,19.77-3.1,3.01.77,5.42,3.06,7.81,5.03,2.88,2.38,3.59,5.58,1.28,8.65-1.93,2.57-5.73,3.29-8.28.69-2.88-2.92-6.71-4.38-10.85-2.99-3.65,1.23-6.26,4.61-6.95,8.92-.52,3.26.79,6.98,3.87,8.65l11.5,6.23c10.75,5.82,18.22,11.56,16.7,24.69Z"/>
    <path class="st0" d="M1289.09,248.19c-6.61,3.63-10.09,9.98-10.09,17.5v41.3c-.59,1.94-2.72,4.03-4.72,4.59-2.78.78-7.27-1.71-7.28-5l-.04-68.58c.77-1.79,2.32-3.47,3.56-4.01,1.84-.81,4.2-.49,5.52.55,2.15,1.7,3.28,3.14,3.11,6.37,5.26-4.23,10.87-6.28,17.36-7.11,2.48-.32,5.09-.07,6.67,1.9s2.1,4.9.7,7.02c-3.25,4.93-7.29,1.35-14.79,5.46Z"/>
    <path class="st0" d="M473.13,244.97c-8.81.32-18.12,8.57-18.13,18.21l-.07,44.83-1.27,1.65c-.86,1.13-1.68,2.52-2.63,2.95-3.65,1.66-8.03-2.22-8.03-4.65l-.07-68.4c0-3.9,2.07-7.27,5.81-7.21s6.52,2.92,6.3,7.47c5.19-4.21,10.89-6.48,17.23-7.33,2.39-.32,4.49-.23,6.23,1.54,1.48,1.51,2.38,4.36,1.55,6.72-1.04,2.95-4.1,4.1-6.91,4.2Z"/>
    <path class="st0" d="M1057.98,306.2c0,3.73-2.88,5.66-5.95,5.9-2.39.19-6.03-2.19-6.03-5.38l-.05-67.41c0-3.74,3.4-6.79,7.08-5.82,2.11.56,3.84,2.59,4.97,4.53l-.02,68.18Z"/>
    <path class="st0" d="M1055.66,222.91c-3.3,1.68-6.69,1.41-8.59-1.04-2.04-2.63-2.02-5.71.15-8.56,1.42-1.86,4.28-2.51,6.56-1.58s4.17,2.88,4.15,5.67c-.01,2.09-.42,4.56-2.27,5.51Z"/>
    <polygon class="st3" points="441 307.25 440.99 238.31 442 237.86 442.04 306.98 441 307.25"/>
    <g>
      <path class="st0" d="M907.08,207l-48.57-.43-.51.47v38.95h38.62c2.1-.24,3.97.78,5.16,2.27,1.99,1.42,2.45,3.53,1.05,5.69-.98,1.43-2.64,4.14-4.83,4.04h-38.99v48.72s-4.52,7.06-8.27,5.97c-1.92-.56-3.88-2.85-4.73-4.68v-107.79c-.19-2.44,3.38-5.3,5.56-5.22h55.02l3.77,1.7c1.34,1.8,1.89,4.2,1.08,6.41-.65,1.77-4.34,3.89-4.34,3.89Z"/>
      <polygon class="st1" points="907.08 208 858.24 207 858.75 208 907.08 208"/>
    </g>
    <path class="st2" d="M767.7,223.84l-.44.83c-.09.21-.76-.29-.88-.48l-.29-.48,1.61.13Z"/>
    <g>
      <g>
        <path class="st0" d="M777,307.11l1-3.83v-72.32l-.32-7.24-1.16-.71h-8.81l-1.61.71c-2.85-.02-4.8-2.05-5.8-5.33-.87,3.36-6.03,5.62-6.03,5.62h-10.13l-1.14-.29,1,7.25v76.18l-.14.45c-.55,2.6-1.77,3.97-4.83,4.92s-8.22-1.02-8.03-5.14v-83.37h-11.7c-3.53-.06-6.2-2.99-6.46-5.88-.26-2.9,5.82-7.12,5.82-7.12h12.34v-14.6c-.18-3.51,2.08-6.07,5.55-6.31,2.37-.17,6.4,1.4,6.47,4.86l.34,17.05h10.29s6.29,2.21,6.46,5.57c1.53-2.62,2.93-5.73,5.98-5.57h11.92v-15.09c-.69-3.04.29-4.81,2.6-6.1,3.52-1.96,9.4,3.9,9.4,3.9v16.85l11.17.27c2.59.06,5.26,3.18,5.51,5.78.29,3.07-2.63,6.24-5.73,6.3l-10.95.2-.06,83.19c0,3.21-3.43,5.24-5.67,5.68-2.7.53-5.81-1.31-6.63-3.87l-.64-1.99Z"/>
        <polygon class="st2" points="777.44 230.95 777.11 227.01 776.51 223.89 777.68 223.71 777.44 230.95"/>
        <path class="st2" d="M777.03,307.24c-.36-1.12-.39-2.76-.03-3.97l.03,3.97Z"/>
      </g>
      <g>
        <polygon class="st2" points="744.14 223.88 743.5 227.99 743.2 230.96 743 223.71 744.14 223.88"/>
        <path class="st2" d="M754.27,224l-.9.91c-.24.24-.9-.75-.8-.91h1.7Z"/>
        <path class="st2" d="M742.87,307.59l.37-.45s.38.14.52.18c.12.04.14.29.02.28l-.9-.02Z"/>
      </g>
    </g>
  </g>
</svg>